<?xml version="1.0" encoding="UTF-8"?>
<svg xmlns="http://www.w3.org/2000/svg" xmlns:xlink="http://www.w3.org/1999/xlink" width="px" height="px" viewBox="0 0 644 428" version="1.1">
<defs>
<filter id="alpha" filterUnits="objectBoundingBox" x="0%" y="0%" width="100%" height="100%">
  <feColorMatrix type="matrix" in="SourceGraphic" values="0 0 0 0 1 0 0 0 0 1 0 0 0 0 1 0 0 0 1 0"/>
</filter>
<mask id="mask0">
  <g filter="url(#alpha)">
<rect x="0" y="0" width="644" height="428" style="fill:rgb(0%,0%,0%);fill-opacity:0.2;stroke:none;"/>
  </g>
</mask>
<clipPath id="clip1">
  <rect x="0" y="0" width="644" height="428"/>
</clipPath>
<g id="surface5" clip-path="url(#clip1)">
<path style=" stroke:none;fill-rule:nonzero;fill:rgb(0%,0%,0%);fill-opacity:1;" d="M 344.160156 401.714844 L 345.902344 401.714844 L 345.902344 322.230469 L 386.585938 322.230469 L 386.585938 320.492188 L 345.902344 320.492188 L 345.902344 286.953125 L 377.320312 286.953125 C 376.859375 286.367188 376.386719 285.785156 375.898438 285.214844 L 345.902344 285.214844 L 345.902344 263.0625 C 345.328125 262.816406 344.746094 262.582031 344.160156 262.355469 L 344.160156 285.214844 L 309.972656 285.214844 L 309.972656 256.832031 C 309.386719 256.859375 308.8125 256.898438 308.230469 256.949219 L 308.230469 285.214844 L 280.957031 285.214844 L 280.957031 264.039062 C 280.371094 264.300781 279.792969 264.570312 279.222656 264.859375 L 279.222656 285.214844 L 256.296875 285.214844 L 256.296875 286.953125 L 279.222656 286.953125 L 279.222656 320.492188 L 256.296875 320.492188 L 256.296875 322.230469 L 279.222656 322.230469 L 279.222656 401.714844 L 280.957031 401.714844 L 280.957031 322.230469 C 296.019531 322.230469 308.230469 334.453125 308.230469 349.53125 L 308.230469 401.714844 L 309.972656 401.714844 L 309.972656 322.230469 L 344.160156 322.230469 Z M 280.957031 320.492188 L 280.957031 286.953125 L 308.230469 286.953125 L 308.230469 320.492188 Z M 309.972656 320.492188 L 309.972656 286.953125 L 310.65625 286.953125 C 329.160156 286.953125 344.160156 301.96875 344.160156 320.492188 Z M 309.972656 320.492188 "/>
</g>
</defs>
<g id="surface1">
<path style=" stroke:none;fill-rule:nonzero;fill:rgb(94.901961%,94.901961%,94.901961%);fill-opacity:1;" d="M 326.292969 120.324219 C 320.550781 110.816406 313.746094 100.664062 303.089844 97.5625 C 290.746094 93.964844 278.066406 101.109375 267.3125 108.15625 C 235.152344 129.234375 204.179688 152.074219 174.539062 176.578125 L 174.570312 176.949219 C 197.648438 175.355469 220.722656 173.761719 243.800781 172.167969 C 260.472656 171.015625 277.71875 169.707031 292.453125 161.8125 C 298.046875 158.816406 303.496094 154.816406 309.832031 154.535156 C 317.703125 154.191406 324.566406 159.691406 329.960938 165.441406 C 361.867188 199.449219 371.097656 251.457031 406.894531 281.335938 C 384.324219 225.617188 357.371094 171.777344 326.292969 120.324219 Z M 326.292969 120.324219 "/>
<path style=" stroke:none;fill-rule:nonzero;fill:rgb(89.411765%,89.411765%,89.411765%);fill-opacity:1;" d="M 522.417969 408.777344 C 518.886719 404.316406 517.445312 403.273438 513.964844 398.773438 C 485.628906 362.085938 458.992188 324.160156 434.058594 284.996094 C 417.125 258.394531 401.027344 231.285156 385.773438 203.664062 C 378.507812 190.53125 371.445312 177.296875 364.578125 163.960938 C 359.253906 153.621094 354.046875 143.214844 348.957031 132.75 C 347.5 129.761719 346.085938 126.757812 344.679688 123.75 C 341.363281 116.671875 338.109375 109.558594 334.613281 102.578125 C 330.632812 94.621094 325.785156 86.277344 318.476562 80.933594 C 315.148438 78.398438 311.167969 76.867188 307.003906 76.515625 C 301.054688 76.128906 295.5625 78.589844 290.398438 81.277344 C 252.628906 100.992188 217.269531 125.707031 185.285156 153.832031 C 153.21875 182.019531 124.558594 213.867188 99.886719 248.71875 C 99.132812 249.800781 97.347656 248.769531 98.109375 247.683594 C 101.109375 243.4375 104.167969 239.234375 107.285156 235.082031 C 146.066406 183.453125 193.621094 139.054688 247.769531 103.917969 C 256.878906 98.007812 266.160156 92.375 275.613281 87.019531 C 280.375 84.320312 285.160156 81.65625 290.027344 79.152344 C 294.800781 76.699219 299.867188 74.496094 305.316406 74.410156 C 323.863281 74.125 333.46875 95.148438 340.066406 109.296875 C 342.140625 113.75 344.238281 118.191406 346.359375 122.617188 C 354.386719 139.417969 362.71875 156.0625 371.363281 172.558594 C 376.695312 182.742188 382.148438 192.863281 387.714844 202.929688 C 405.042969 234.269531 423.457031 264.976562 442.960938 295.046875 C 468.800781 334.882812 494.433594 370.070312 523.871094 407.320312 C 524.683594 408.351562 523.234375 409.824219 522.417969 408.777344 Z M 522.417969 408.777344 "/>
<path style=" stroke:none;fill-rule:nonzero;fill:rgb(89.411765%,89.411765%,89.411765%);fill-opacity:1;" d="M 183.453125 143.449219 C 182.375 142.246094 181.304688 141.042969 180.21875 139.84375 C 171.664062 130.375 162.488281 121.015625 150.742188 115.585938 C 145.140625 112.914062 139.027344 111.496094 132.824219 111.429688 C 126.410156 111.449219 120.144531 113.132812 114.21875 115.488281 C 111.417969 116.609375 108.679688 117.882812 105.980469 119.234375 C 102.898438 120.789062 99.871094 122.445312 96.859375 124.113281 C 91.203125 127.246094 85.617188 130.515625 80.109375 133.925781 C 69.144531 140.707031 58.527344 148.007812 48.25 155.824219 C 42.921875 159.878906 37.703125 164.066406 32.597656 168.386719 C 27.847656 172.398438 23.191406 176.519531 18.632812 180.746094 C 17.660156 181.648438 16.203125 180.191406 17.179688 179.292969 C 18.378906 178.171875 19.59375 177.058594 20.808594 175.957031 C 24.242188 172.851562 27.730469 169.804688 31.273438 166.820312 C 37.730469 161.363281 44.359375 156.117188 51.152344 151.082031 C 61.71875 143.25 72.648438 135.949219 83.9375 129.175781 C 89.582031 125.796875 95.300781 122.558594 101.101562 119.460938 C 102.851562 118.527344 104.621094 117.613281 106.414062 116.746094 C 110.480469 114.695312 114.703125 112.972656 119.046875 111.601562 C 125.195312 109.609375 131.703125 108.96875 138.125 109.722656 C 144.320312 110.628906 150.292969 112.695312 155.726562 115.820312 C 167.257812 122.273438 176.203125 132.25 184.90625 141.984375 C 185.785156 142.976562 184.335938 144.4375 183.453125 143.449219 Z M 183.453125 143.449219 "/>
<path style=" stroke:none;fill-rule:nonzero;fill:rgb(89.411765%,89.411765%,89.411765%);fill-opacity:1;" d="M 419.753906 241.574219 L 447.390625 231.453125 L 461.113281 226.429688 C 465.582031 224.796875 470.039062 222.933594 474.65625 221.761719 C 478.671875 220.613281 482.933594 220.667969 486.917969 221.917969 C 490.472656 223.234375 493.722656 225.253906 496.484375 227.851562 C 499.300781 230.449219 501.921875 233.25 504.328125 236.238281 C 507.3125 239.832031 510.257812 243.460938 513.214844 247.082031 C 525.414062 262.015625 537.539062 277.019531 549.578125 292.085938 C 561.621094 307.152344 573.582031 322.28125 585.464844 337.476562 C 597.375 352.707031 609.203125 368.003906 620.949219 383.359375 C 622.386719 385.242188 623.824219 387.125 625.261719 389.007812 C 626.054688 390.046875 627.84375 389.023438 627.039062 387.96875 C 615.207031 372.453125 603.289062 357.003906 591.292969 341.617188 C 579.265625 326.195312 567.15625 310.839844 554.960938 295.546875 C 542.769531 280.253906 530.492188 265.027344 518.136719 249.871094 C 515.058594 246.09375 511.972656 242.320312 508.882812 238.554688 C 506.277344 235.375 503.703125 232.160156 500.84375 229.203125 C 495.597656 223.773438 489.042969 218.972656 481.199219 218.84375 C 476.585938 218.765625 472.121094 220.230469 467.835938 221.78125 C 463.214844 223.457031 458.609375 225.160156 453.992188 226.847656 L 426.164062 237.039062 L 419.207031 239.585938 C 417.972656 240.035156 418.507812 242.03125 419.753906 241.574219 Z M 419.753906 241.574219 "/>
<path style=" stroke:none;fill-rule:nonzero;fill:rgb(94.901961%,94.901961%,94.901961%);fill-opacity:1;" d="M 147.105469 127.5 C 133.058594 120.277344 115.074219 121.691406 102.167969 130.71875 C 126.785156 134.96875 151.132812 140.65625 175.085938 147.75 C 165.136719 141.917969 157.359375 132.777344 147.105469 127.5 Z M 147.105469 127.5 "/>
<path style=" stroke:none;fill-rule:nonzero;fill:rgb(94.901961%,94.901961%,94.901961%);fill-opacity:1;" d="M 102.03125 130.691406 L 99.328125 132.890625 C 100.242188 132.121094 101.191406 131.398438 102.167969 130.71875 C 102.125 130.710938 102.078125 130.699219 102.03125 130.691406 Z M 102.03125 130.691406 "/>
<path style=" stroke:none;fill-rule:nonzero;fill:rgb(94.901961%,94.901961%,94.901961%);fill-opacity:1;" d="M 495.441406 241.671875 C 492.722656 238.359375 489.78125 234.886719 485.710938 233.542969 L 481.914062 233.691406 C 510.832031 284.839844 549.886719 329.535156 596.683594 365.03125 C 562.9375 323.910156 529.191406 282.792969 495.441406 241.671875 Z M 495.441406 241.671875 "/>
<path style=" stroke:none;fill-rule:nonzero;fill:rgb(94.901961%,94.901961%,94.901961%);fill-opacity:1;" d="M 259.210938 214.332031 C 260.96875 220.722656 264.929688 226.289062 270.390625 230.039062 C 272.503906 231.480469 275 232.859375 275.722656 235.3125 C 276.105469 236.875 275.871094 238.527344 275.070312 239.921875 C 274.269531 241.300781 273.300781 242.570312 272.179688 243.703125 L 272.074219 244.085938 C 266.835938 240.976562 261.847656 237.042969 258.953125 231.679688 C 256.058594 226.3125 255.65625 219.28125 259.210938 214.332031 "/>
<path style=" stroke:none;fill-rule:nonzero;fill:rgb(94.901961%,94.901961%,94.901961%);fill-opacity:1;" d="M 433.6875 366.492188 C 435.445312 372.882812 439.40625 378.449219 444.871094 382.199219 C 446.980469 383.640625 449.480469 385.019531 450.203125 387.472656 C 450.582031 389.039062 450.347656 390.6875 449.546875 392.082031 C 448.75 393.460938 447.777344 394.730469 446.65625 395.863281 L 446.554688 396.246094 C 441.3125 393.136719 436.328125 389.207031 433.433594 383.839844 C 430.539062 378.476562 430.132812 371.441406 433.6875 366.492188 "/>
<path style=" stroke:none;fill-rule:nonzero;fill:rgb(94.901961%,94.901961%,94.901961%);fill-opacity:1;" d="M 85.480469 355.996094 C 87.238281 362.390625 91.199219 367.957031 96.660156 371.707031 C 98.773438 373.148438 101.269531 374.527344 101.992188 376.980469 C 102.375 378.542969 102.140625 380.195312 101.339844 381.589844 C 100.539062 382.96875 99.570312 384.238281 98.449219 385.367188 L 98.34375 385.753906 C 93.105469 382.644531 88.117188 378.710938 85.222656 373.347656 C 82.328125 367.980469 81.925781 360.949219 85.480469 355.996094 "/>
<path style=" stroke:none;fill-rule:nonzero;fill:rgb(2.352941%,56.078431%,80.784314%);fill-opacity:1;" d="M 524.371094 38.226562 C 524.371094 59.339844 507.273438 76.457031 486.183594 76.457031 C 465.089844 76.457031 447.992188 59.339844 447.992188 38.226562 C 447.992188 17.113281 465.089844 0 486.183594 0 C 507.273438 0 524.371094 17.113281 524.371094 38.226562 Z M 524.371094 38.226562 "/>
<path style=" stroke:none;fill-rule:nonzero;fill:rgb(94.117647%,94.117647%,94.117647%);fill-opacity:1;" d="M 555.101562 8.898438 C 536.59375 6.394531 515.460938 16.40625 510.664062 34.476562 C 508.183594 27.882812 501.730469 23.652344 494.703125 24.015625 C 487.671875 24.375 481.683594 29.246094 479.890625 36.054688 L 482.011719 37.574219 C 521.675781 46.160156 562.734375 45.976562 602.316406 37.03125 C 589.445312 23.488281 573.609375 11.402344 555.101562 8.898438 Z M 555.101562 8.898438 "/>
<path style=" stroke:none;fill-rule:nonzero;fill:rgb(94.117647%,94.117647%,94.117647%);fill-opacity:1;" d="M 475.722656 59.867188 C 457.214844 57.363281 436.085938 67.378906 431.289062 85.445312 C 428.808594 78.855469 422.351562 74.625 415.324219 74.984375 C 408.296875 75.347656 402.308594 80.214844 400.515625 87.027344 L 402.632812 88.546875 C 442.296875 97.132812 483.355469 96.945312 522.941406 88 C 510.066406 74.457031 494.234375 62.371094 475.722656 59.867188 Z M 475.722656 59.867188 "/>
<path style=" stroke:none;fill-rule:nonzero;fill:rgb(80%,80%,80%);fill-opacity:1;" d="M 637.269531 69.503906 C 637.191406 69.503906 637.117188 69.492188 637.042969 69.46875 C 439.046875 6.792969 264.539062 14.988281 153.007812 32.902344 C 137.832031 35.339844 122.613281 38.152344 107.777344 41.269531 C 103.988281 42.0625 100.058594 42.914062 96.097656 43.800781 C 91.367188 44.855469 86.695312 45.941406 82.21875 47.027344 C 80.285156 47.484375 78.390625 47.949219 76.53125 48.414062 C 73.71875 49.109375 70.863281 49.832031 67.800781 50.628906 C 64.382812 51.511719 60.90625 52.4375 57.46875 53.382812 C 57.457031 53.386719 57.445312 53.390625 57.429688 53.394531 C 53.550781 54.453125 49.691406 55.546875 45.957031 56.636719 C 43.9375 57.21875 41.984375 57.796875 40.117188 58.363281 C 39.90625 58.421875 39.722656 58.476562 39.535156 58.535156 L 39.132812 58.65625 C 38.902344 58.726562 38.671875 58.796875 38.441406 58.863281 L 38.425781 58.867188 L 37.820312 59.058594 C 37.09375 59.277344 36.386719 59.492188 35.691406 59.707031 C 17.3125 65.378906 7.207031 69.410156 7.109375 69.453125 C 6.722656 69.605469 6.289062 69.417969 6.132812 69.035156 C 5.980469 68.648438 6.167969 68.214844 6.550781 68.058594 C 6.652344 68.019531 16.804688 63.964844 35.253906 58.273438 C 35.949219 58.058594 36.660156 57.84375 37.386719 57.625 L 37.949219 57.449219 C 37.96875 57.441406 37.988281 57.433594 38.007812 57.429688 C 38.238281 57.363281 38.464844 57.292969 38.699219 57.222656 L 39.101562 57.101562 C 39.300781 57.039062 39.496094 56.980469 39.699219 56.925781 C 41.554688 56.359375 43.515625 55.78125 45.539062 55.195312 C 49.273438 54.105469 53.136719 53.015625 57.023438 51.953125 C 57.035156 51.949219 57.046875 51.945312 57.058594 51.941406 C 60.507812 50.992188 63.996094 50.0625 67.425781 49.179688 C 70.492188 48.382812 73.351562 47.65625 76.171875 46.957031 C 78.039062 46.492188 79.9375 46.03125 81.871094 45.570312 C 86.351562 44.480469 91.03125 43.394531 95.769531 42.335938 C 99.738281 41.449219 103.675781 40.597656 107.46875 39.800781 C 122.328125 36.679688 137.570312 33.863281 152.773438 31.421875 C 264.460938 13.484375 439.21875 5.273438 637.492188 68.042969 C 637.847656 68.152344 638.066406 68.503906 638.007812 68.871094 C 637.953125 69.234375 637.636719 69.503906 637.269531 69.503906 Z M 637.269531 69.503906 "/>
<path style=" stroke:none;fill-rule:nonzero;fill:rgb(24.705882%,23.921569%,33.72549%);fill-opacity:1;" d="M 196.9375 314.695312 C 196.675781 313.9375 196.238281 313.25 195.664062 312.695312 C 195.449219 312.496094 195.21875 312.320312 194.972656 312.164062 C 193.019531 310.859375 190.097656 310.566406 188.242188 312.164062 C 188.054688 312.324219 187.882812 312.503906 187.726562 312.695312 C 187.171875 313.375 186.601562 314.042969 186.019531 314.695312 C 185.058594 315.789062 184.078125 316.847656 183.050781 317.875 C 182.761719 318.160156 182.46875 318.453125 182.167969 318.734375 C 181.996094 318.910156 181.824219 319.074219 181.652344 319.238281 C 180.992188 319.867188 180.320312 320.476562 179.636719 321.074219 C 179.277344 321.398438 178.917969 321.710938 178.550781 322.019531 C 178.003906 322.476562 177.457031 322.933594 176.90625 323.375 C 176.851562 323.414062 176.800781 323.449219 176.746094 323.496094 C 176.730469 323.503906 176.726562 323.519531 176.710938 323.527344 C 176.703125 323.527344 176.695312 323.527344 176.6875 323.539062 C 176.667969 323.550781 176.648438 323.5625 176.636719 323.578125 C 176.46875 323.691406 176.359375 323.765625 176.273438 323.832031 C 176.304688 323.820312 176.335938 323.796875 176.363281 323.78125 C 176.230469 323.886719 176.089844 323.992188 175.953125 324.09375 C 174.644531 325.0625 173.300781 325.992188 171.933594 326.863281 C 168.542969 329.035156 164.980469 330.925781 161.285156 332.519531 C 161.035156 332.617188 160.78125 332.722656 160.527344 332.820312 C 150.847656 336.789062 140.347656 338.339844 129.9375 337.332031 C 128.875 337.25 127.8125 337.136719 126.746094 336.996094 C 125.519531 336.816406 124.296875 336.597656 123.085938 336.351562 C 118.46875 335.429688 113.949219 334.0625 109.589844 332.273438 C 104.140625 329.773438 98.957031 326.730469 94.121094 323.1875 C 93.371094 322.65625 92.617188 322.125 91.859375 321.605469 C 92.71875 319.492188 93.566406 317.378906 94.390625 315.25 C 94.800781 314.222656 95.199219 313.195312 95.589844 312.164062 C 98.652344 304.195312 101.527344 296.152344 104.28125 288.078125 C 107.066406 279.902344 109.695312 271.675781 112.167969 263.402344 C 112.421875 262.5625 112.667969 261.726562 112.910156 260.886719 C 114.203125 256.515625 115.449219 252.136719 116.636719 247.746094 C 116.75 247.316406 116.871094 246.898438 116.976562 246.472656 C 117.320312 245.210938 117.65625 243.953125 117.984375 242.691406 C 118.734375 239.851562 117.042969 236.457031 114.0625 235.773438 C 111.078125 235.007812 108.027344 236.746094 107.15625 239.703125 C 106.835938 240.917969 106.515625 242.125 106.183594 243.335938 C 104.605469 249.207031 102.941406 255.054688 101.195312 260.886719 C 100.941406 261.726562 100.6875 262.5625 100.433594 263.402344 C 96.585938 276.101562 92.359375 288.671875 87.753906 301.113281 C 87.203125 302.621094 86.640625 304.121094 86.070312 305.617188 C 85.792969 306.355469 85.515625 307.089844 85.230469 307.824219 C 84.683594 309.269531 84.125 310.714844 83.5625 312.164062 C 83.238281 313.007812 82.910156 313.855469 82.582031 314.695312 C 82.363281 315.226562 82.152344 315.761719 81.945312 316.285156 C 79.808594 315.519531 77.597656 314.984375 75.347656 314.695312 L 74.988281 314.652344 C 73.242188 314.441406 71.480469 314.457031 69.738281 314.695312 C 64.464844 315.3125 59.734375 318.238281 56.828125 322.6875 C 53.257812 328.316406 53.300781 336.367188 58.3125 341.148438 C 63.46875 346.074219 71.28125 346.035156 77.355469 342.953125 C 80.574219 341.210938 83.285156 338.664062 85.230469 335.5625 C 85.976562 334.441406 86.660156 333.277344 87.285156 332.078125 C 87.441406 332.183594 87.597656 332.289062 87.753906 332.402344 C 88.355469 332.820312 88.953125 333.246094 89.546875 333.667969 C 92.992188 336.167969 96.625 338.398438 100.410156 340.347656 C 108.550781 344.398438 117.316406 347.050781 126.335938 348.195312 C 126.539062 348.214844 126.730469 348.246094 126.933594 348.269531 C 127.929688 348.398438 128.933594 348.492188 129.9375 348.578125 C 144.332031 349.664062 158.742188 346.714844 171.558594 340.0625 C 172.644531 339.5 173.71875 338.910156 174.785156 338.292969 C 176.441406 337.332031 178.058594 336.3125 179.636719 335.234375 C 180.5 334.648438 181.335938 334.058594 182.167969 333.433594 C 185.800781 330.757812 189.1875 327.757812 192.285156 324.476562 C 193.460938 323.242188 194.585938 321.964844 195.664062 320.648438 C 196.679688 319.570312 197.265625 318.15625 197.308594 316.675781 C 197.304688 316 197.175781 315.328125 196.9375 314.695312 Z M 72.9375 332.550781 C 73.09375 332.4375 73.25 332.320312 73.398438 332.199219 C 73.355469 332.3125 73.136719 332.4375 72.9375 332.550781 Z M 75.339844 330.128906 C 75.167969 330.324219 75.011719 330.519531 74.835938 330.714844 C 74.3125 331.300781 73.75 331.851562 73.152344 332.363281 C 73.070312 332.4375 72.980469 332.511719 72.890625 332.582031 C 72.890625 332.582031 72.886719 332.582031 72.886719 332.582031 C 72.882812 332.585938 72.882812 332.585938 72.882812 332.589844 C 72.773438 332.636719 72.671875 332.691406 72.570312 332.753906 C 72.246094 332.949219 71.917969 333.128906 71.582031 333.292969 C 70.921875 333.535156 70.242188 333.722656 69.550781 333.855469 C 69.019531 333.894531 68.488281 333.898438 67.957031 333.871094 L 67.941406 333.871094 C 67.574219 333.789062 67.210938 333.6875 66.855469 333.570312 C 66.675781 333.480469 66.503906 333.375 66.332031 333.269531 C 66.265625 333.210938 66.203125 333.152344 66.167969 333.113281 C 66.09375 333.046875 66.027344 332.972656 65.964844 332.894531 C 65.964844 332.894531 65.964844 332.890625 65.960938 332.890625 C 65.960938 332.890625 65.957031 332.886719 65.957031 332.886719 C 65.875 332.738281 65.785156 332.589844 65.703125 332.4375 C 65.699219 332.433594 65.695312 332.429688 65.695312 332.421875 C 65.632812 332.234375 65.582031 332.042969 65.539062 331.847656 C 65.519531 331.503906 65.523438 331.160156 65.542969 330.820312 C 65.644531 330.339844 65.78125 329.871094 65.949219 329.410156 C 66.101562 329.085938 66.273438 328.769531 66.464844 328.464844 C 66.480469 328.4375 66.554688 328.316406 66.636719 328.179688 C 66.644531 328.171875 66.644531 328.171875 66.644531 328.164062 C 66.757812 328.039062 66.871094 327.902344 66.988281 327.785156 C 67.191406 327.558594 67.410156 327.363281 67.625 327.160156 C 68.050781 326.882812 68.488281 326.632812 68.9375 326.40625 C 69.652344 326.148438 70.386719 325.953125 71.132812 325.8125 C 72.230469 325.726562 73.335938 325.734375 74.433594 325.84375 C 75.472656 326.023438 76.5 326.277344 77.503906 326.597656 C 76.894531 327.78125 76.203125 328.917969 75.429688 330.003906 C 75.398438 330.046875 75.371094 330.09375 75.339844 330.128906 Z M 67.011719 327.664062 C 66.945312 327.769531 66.867188 327.867188 66.78125 327.957031 C 66.839844 327.84375 66.917969 327.746094 67.011719 327.664062 Z M 67.011719 327.664062 "/>
<path style=" stroke:none;fill-rule:nonzero;fill:rgb(24.705882%,23.921569%,33.72549%);fill-opacity:1;" d="M 174.425781 238.144531 C 174.359375 240.496094 174.289062 242.851562 174.222656 245.203125 C 174.082031 250.429688 173.933594 255.65625 173.78125 260.886719 C 173.625 266.769531 173.460938 272.652344 173.289062 278.53125 C 173.207031 281.566406 173.121094 284.601562 173.03125 287.636719 C 172.800781 295.816406 172.570312 303.988281 172.34375 312.164062 C 172.320312 313.007812 172.292969 313.847656 172.269531 314.695312 C 172.15625 318.75 172.042969 322.804688 171.933594 326.863281 C 171.804688 331.261719 171.679688 335.660156 171.558594 340.0625 C 171.46875 343.359375 171.375 346.660156 171.28125 349.964844 C 170.605469 373.898438 169.933594 397.832031 169.257812 421.761719 C 169.199219 424.84375 166.71875 427.324219 163.640625 427.386719 C 160.550781 427.359375 158.050781 424.859375 158.027344 421.761719 C 158.402344 408.300781 158.78125 394.839844 159.164062 381.378906 C 159.5 369.203125 159.84375 357.03125 160.191406 344.859375 C 160.300781 340.847656 160.414062 336.835938 160.527344 332.820312 C 160.699219 326.777344 160.871094 320.738281 161.035156 314.695312 C 161.058594 313.847656 161.089844 313.007812 161.113281 312.164062 C 161.125 311.421875 161.148438 310.6875 161.171875 309.945312 C 161.5 298.214844 161.832031 286.480469 162.160156 274.746094 C 162.292969 270.128906 162.425781 265.507812 162.550781 260.886719 C 162.699219 255.617188 162.847656 250.347656 163 245.085938 C 163.066406 242.769531 163.125 240.460938 163.191406 238.144531 C 163.253906 235.0625 165.734375 232.582031 168.808594 232.523438 C 171.902344 232.546875 174.402344 235.050781 174.425781 238.144531 Z M 174.425781 238.144531 "/>
<path style=" stroke:none;fill-rule:nonzero;fill:rgb(24.705882%,23.921569%,33.72549%);fill-opacity:1;" d="M 482.519531 239.703125 C 476.628906 262.023438 469.589844 284.027344 461.429688 305.621094 C 459.179688 311.578125 456.875 317.523438 454.414062 323.394531 L 454.980469 322.050781 C 453.878906 324.847656 452.476562 327.515625 450.792969 330.003906 C 450.679688 330.167969 450.5625 330.324219 450.445312 330.484375 C 451.023438 329.738281 451.136719 329.589844 450.773438 330.042969 C 450.585938 330.265625 450.398438 330.492188 450.199219 330.710938 C 449.675781 331.300781 449.113281 331.851562 448.515625 332.363281 C 448.367188 332.492188 448.214844 332.617188 448.058594 332.742188 L 448.761719 332.195312 C 448.679688 332.386719 448.105469 332.644531 447.929688 332.753906 C 447.351562 333.101562 446.75 333.40625 446.128906 333.664062 L 447.46875 333.097656 C 446.449219 333.511719 445.386719 333.800781 444.300781 333.96875 L 445.792969 333.769531 C 444.726562 333.914062 443.644531 333.925781 442.574219 333.800781 L 444.070312 334.003906 C 443.191406 333.882812 442.335938 333.652344 441.519531 333.316406 L 442.859375 333.882812 C 442.425781 333.691406 442.003906 333.46875 441.601562 333.210938 C 441.398438 333.078125 440.777344 332.605469 441.59375 333.230469 C 442.441406 333.878906 441.703125 333.285156 441.527344 333.113281 C 441.382812 332.96875 441.25 332.8125 441.105469 332.667969 C 440.445312 331.988281 441.851562 333.832031 441.40625 333.039062 C 441.164062 332.644531 440.945312 332.234375 440.746094 331.8125 L 441.3125 333.15625 C 441.054688 332.515625 440.871094 331.851562 440.769531 331.167969 L 440.96875 332.664062 C 440.863281 331.816406 440.859375 330.957031 440.964844 330.113281 L 440.765625 331.605469 C 440.902344 330.660156 441.152344 329.734375 441.511719 328.847656 L 440.945312 330.191406 C 441.195312 329.59375 441.488281 329.019531 441.828125 328.46875 C 441.980469 328.183594 442.164062 327.914062 442.371094 327.664062 C 442.410156 327.675781 441.421875 328.796875 441.945312 328.230469 C 442.082031 328.082031 442.210938 327.925781 442.347656 327.78125 C 442.570312 327.546875 442.808594 327.332031 443.042969 327.109375 C 443.824219 326.363281 441.949219 327.832031 442.851562 327.242188 C 443.503906 326.8125 444.191406 326.433594 444.910156 326.117188 L 443.566406 326.683594 C 444.765625 326.191406 446.023438 325.855469 447.308594 325.679688 L 445.816406 325.882812 C 447.421875 325.695312 449.050781 325.714844 450.652344 325.9375 L 449.160156 325.738281 C 451.191406 326.046875 453.175781 326.605469 455.070312 327.402344 L 453.726562 326.835938 C 457.765625 328.570312 461.339844 331.144531 464.90625 333.667969 C 468.351562 336.167969 471.984375 338.398438 475.769531 340.34375 C 483.910156 344.398438 492.675781 347.050781 501.695312 348.195312 C 527.984375 351.417969 554.105469 341.039062 571.027344 320.648438 C 572.042969 319.570312 572.628906 318.15625 572.671875 316.671875 C 572.660156 315.183594 572.070312 313.757812 571.027344 312.699219 C 568.96875 310.804688 565.074219 310.269531 563.085938 312.699219 C 561.199219 315.003906 559.171875 317.1875 557.015625 319.238281 C 556.007812 320.195312 554.972656 321.121094 553.914062 322.019531 C 553.304688 322.53125 552.691406 323.035156 552.070312 323.527344 C 551.773438 323.761719 550.855469 324.378906 552.265625 323.378906 C 551.945312 323.609375 551.632812 323.859375 551.316406 324.09375 C 546.597656 327.574219 541.488281 330.484375 536.089844 332.765625 L 537.429688 332.195312 C 531.636719 334.628906 525.554688 336.296875 519.332031 337.160156 L 520.824219 336.960938 C 514.421875 337.804688 507.9375 337.792969 501.539062 336.933594 L 503.03125 337.132812 C 496.632812 336.253906 490.378906 334.546875 484.417969 332.058594 L 485.757812 332.625 C 480.007812 330.078125 474.550781 326.914062 469.480469 323.1875 C 466.84375 321.230469 464.0625 319.480469 461.160156 317.945312 C 457.78125 316.214844 454.117188 315.101562 450.347656 314.65625 C 443.28125 313.820312 436.078125 316.578125 432.191406 322.691406 C 428.617188 328.316406 428.664062 336.363281 433.671875 341.148438 C 438.828125 346.074219 446.640625 346.03125 452.71875 342.953125 C 458.570312 339.984375 462.085938 333.816406 464.558594 328.003906 C 470.125 314.921875 475.050781 301.535156 479.640625 288.078125 C 484.183594 274.769531 488.300781 261.324219 491.996094 247.742188 C 492.453125 246.0625 492.90625 244.378906 493.351562 242.691406 C 494.097656 239.851562 492.40625 236.457031 489.425781 235.777344 C 486.441406 235.007812 483.386719 236.746094 482.519531 239.703125 Z M 482.519531 239.703125 "/>
<path style=" stroke:none;fill-rule:nonzero;fill:rgb(24.705882%,23.921569%,33.72549%);fill-opacity:1;" d="M 538.554688 238.144531 L 536.535156 309.945312 L 534.523438 381.375 L 533.386719 421.765625 C 533.414062 424.859375 535.910156 427.359375 539.003906 427.386719 C 542.078125 427.328125 544.558594 424.84375 544.617188 421.765625 L 546.640625 349.960938 L 548.652344 278.53125 L 549.789062 238.144531 C 549.761719 235.050781 547.261719 232.546875 544.171875 232.519531 C 541.09375 232.582031 538.617188 235.0625 538.554688 238.144531 Z M 538.554688 238.144531 "/>
<use xlink:href="#surface5" mask="url(#mask0)"/>
<path style=" stroke:none;fill-rule:nonzero;fill:rgb(24.705882%,23.921569%,33.72549%);fill-opacity:1;" d="M 333.507812 377.882812 C 331.3125 387.6875 326.054688 396.535156 318.496094 403.144531 C 317.941406 403.625 317.386719 404.089844 316.808594 404.546875 C 315.410156 404.671875 314.019531 404.804688 312.636719 404.9375 C 311.492188 405.039062 310.363281 405.152344 309.238281 405.257812 L 309.035156 405.28125 L 308.894531 404.050781 L 308.324219 399.074219 C 303.851562 391.765625 302.945312 382.820312 305.855469 374.757812 C 307.832031 369.421875 311.410156 364.707031 314.929688 360.03125 C 319.789062 353.570312 324.515625 347.183594 324.6875 339.304688 C 327.078125 342.367188 329.066406 345.726562 330.601562 349.296875 C 329.152344 349.980469 327.851562 350.9375 326.769531 352.121094 C 326.460938 352.460938 326.15625 352.929688 326.363281 353.335938 C 326.542969 353.679688 326.992188 353.761719 327.382812 353.808594 C 328.320312 353.90625 329.261719 354.003906 330.199219 354.101562 C 330.949219 354.183594 331.695312 354.257812 332.445312 354.339844 C 333.351562 357.316406 333.964844 360.375 334.28125 363.46875 C 334.785156 368.285156 334.523438 373.152344 333.507812 377.882812 Z M 333.507812 377.882812 "/>
<path style=" stroke:none;fill-rule:nonzero;fill:rgb(2.352941%,56.078431%,80.784314%);fill-opacity:1;" d="M 358.371094 358.238281 C 353.953125 361.453125 351.367188 366.078125 349.363281 371.175781 C 347.304688 371.835938 345.453125 373.019531 343.992188 374.609375 C 343.683594 374.945312 343.378906 375.417969 343.589844 375.824219 C 343.769531 376.167969 344.21875 376.25 344.605469 376.296875 C 345.542969 376.394531 346.484375 376.488281 347.421875 376.585938 C 345.414062 382.613281 343.574219 388.851562 340.023438 393.941406 C 337.664062 397.300781 334.585938 400.09375 331.015625 402.117188 C 330.042969 402.671875 329.035156 403.171875 328.003906 403.609375 C 324.199219 403.902344 320.46875 404.214844 316.808594 404.546875 C 315.410156 404.671875 314.019531 404.804688 312.636719 404.9375 C 311.492188 405.039062 310.363281 405.152344 309.238281 405.257812 C 309.230469 404.847656 309.230469 404.433594 309.238281 404.023438 C 309.476562 393.039062 313.511719 382.480469 320.660156 374.144531 C 320.996094 373.753906 321.339844 373.371094 321.691406 372.988281 C 325.3125 369.117188 329.570312 365.898438 334.28125 363.46875 C 341.699219 359.609375 350.019531 357.800781 358.371094 358.238281 Z M 358.371094 358.238281 "/>
<path style=" stroke:none;fill-rule:nonzero;fill:rgb(2.352941%,56.078431%,80.784314%);fill-opacity:1;" d="M 313.933594 401.089844 L 313.074219 403.640625 L 312.636719 404.9375 C 311.492188 405.039062 310.363281 405.152344 309.238281 405.257812 L 309.035156 405.28125 C 307.792969 405.40625 306.558594 405.535156 305.324219 405.664062 C 305 405.289062 304.679688 404.90625 304.363281 404.515625 C 288.09375 384.792969 290.792969 355.617188 310.40625 339.222656 C 309.417969 344.402344 310.570312 349.363281 312.464844 354.289062 C 312.265625 354.371094 312.070312 354.453125 311.882812 354.542969 C 310.433594 355.226562 309.128906 356.1875 308.046875 357.367188 C 307.742188 357.707031 307.433594 358.179688 307.644531 358.582031 C 307.824219 358.929688 308.273438 359.011719 308.664062 359.054688 C 309.597656 359.152344 310.542969 359.25 311.476562 359.347656 C 312.226562 359.429688 312.976562 359.503906 313.722656 359.585938 C 314.078125 359.625 314.429688 359.664062 314.78125 359.699219 C 314.832031 359.8125 314.878906 359.917969 314.929688 360.03125 C 317.0625 364.660156 319.363281 369.316406 320.660156 374.144531 C 320.984375 375.355469 321.238281 376.582031 321.421875 377.824219 C 322.589844 386.316406 319.835938 394.878906 313.933594 401.089844 Z M 313.933594 401.089844 "/>
<path style=" stroke:none;fill-rule:nonzero;fill:rgb(24.705882%,23.921569%,33.72549%);fill-opacity:1;" d="M 389.3125 292.375 C 382.863281 279.789062 372.875 269.199219 361.128906 261.414062 C 349.347656 253.644531 335.824219 248.910156 321.769531 247.636719 C 319.925781 247.46875 318.082031 247.371094 316.230469 247.34375 C 314.042969 247.3125 281.132812 256.8125 270.109375 264.570312 C 259.09375 272.234375 250.027344 282.382812 243.652344 294.199219 C 237.285156 306.078125 234.152344 319.425781 234.570312 332.902344 C 235.117188 346.457031 238.890625 359.683594 245.582031 371.484375 C 252.179688 383.246094 261.546875 393.214844 272.871094 400.527344 C 284.359375 407.863281 295.894531 427.3125 309.457031 428 C 323.121094 428.691406 338.703125 410.34375 351.164062 404.773438 C 363.625 399.15625 374.398438 390.367188 382.410156 379.285156 C 390.191406 368.421875 395.230469 355.832031 397.085938 342.59375 C 399.011719 329.039062 398.113281 315.0625 393.488281 302.105469 C 392.304688 298.777344 390.90625 295.527344 389.3125 292.375 C 387.976562 289.746094 384.070312 288.78125 381.625 290.359375 C 379.007812 291.972656 378.121094 295.359375 379.613281 298.050781 C 380.394531 299.59375 381.121094 301.160156 381.792969 302.753906 L 381.230469 301.410156 C 383.773438 307.539062 385.507812 313.976562 386.378906 320.554688 L 386.175781 319.058594 C 387.105469 326.199219 387.089844 333.425781 386.128906 340.558594 L 386.328125 339.066406 C 385.359375 346.199219 383.457031 353.171875 380.671875 359.808594 L 381.238281 358.464844 C 379.804688 361.851562 378.136719 365.132812 376.242188 368.285156 C 375.28125 369.875 374.261719 371.429688 373.1875 372.945312 C 372.710938 373.613281 372.226562 374.265625 371.734375 374.917969 C 371.09375 375.769531 372.609375 373.808594 371.945312 374.640625 C 371.832031 374.785156 371.71875 374.925781 371.605469 375.070312 C 371.265625 375.496094 370.921875 375.917969 370.570312 376.332031 C 368.238281 379.121094 365.691406 381.722656 362.953125 384.117188 C 362.269531 384.710938 361.578125 385.296875 360.871094 385.863281 C 360.519531 386.148438 360.171875 386.445312 359.808594 386.707031 C 359.820312 386.699219 360.992188 385.808594 360.296875 386.324219 C 360.082031 386.488281 359.863281 386.652344 359.648438 386.8125 C 358.195312 387.890625 356.703125 388.914062 355.171875 389.878906 C 351.652344 392.101562 347.957031 394.035156 344.125 395.660156 L 345.464844 395.09375 C 338.855469 397.878906 331.90625 399.785156 324.800781 400.753906 L 326.292969 400.554688 C 319.191406 401.515625 311.992188 401.527344 304.882812 400.59375 L 306.378906 400.792969 C 299.917969 399.925781 293.601562 398.214844 287.585938 395.707031 L 288.925781 396.273438 C 285.441406 394.800781 282.082031 393.050781 278.878906 391.035156 C 277.296875 390.035156 275.753906 388.972656 274.25 387.851562 C 274.035156 387.691406 273.824219 387.527344 273.609375 387.367188 C 272.925781 386.847656 274.101562 387.75 274.113281 387.753906 C 273.714844 387.46875 273.328125 387.164062 272.960938 386.835938 C 272.238281 386.246094 271.523438 385.640625 270.820312 385.023438 C 268.007812 382.542969 265.378906 379.859375 262.960938 376.996094 C 262.355469 376.277344 261.761719 375.550781 261.183594 374.8125 C 260.933594 374.492188 260.476562 373.84375 261.488281 375.210938 C 261.355469 375.03125 261.214844 374.855469 261.082031 374.675781 C 260.757812 374.246094 260.441406 373.816406 260.125 373.378906 C 259.027344 371.855469 257.980469 370.296875 256.988281 368.699219 C 254.75 365.082031 252.796875 361.296875 251.144531 357.375 L 251.710938 358.714844 C 249.007812 352.28125 247.160156 345.519531 246.214844 338.601562 L 246.414062 340.09375 C 245.5625 333.71875 245.550781 327.257812 246.378906 320.878906 L 246.179688 322.375 C 247.027344 316.195312 248.6875 310.160156 251.117188 304.414062 L 250.550781 305.757812 C 252.078125 302.164062 253.878906 298.691406 255.9375 295.371094 C 256.96875 293.710938 258.0625 292.089844 259.214844 290.511719 C 259.476562 290.152344 259.742188 289.796875 260.011719 289.441406 C 260.253906 289.121094 260.921875 288.320312 259.78125 289.730469 C 259.894531 289.59375 260.003906 289.453125 260.113281 289.3125 C 260.746094 288.507812 261.394531 287.71875 262.058594 286.941406 C 264.574219 283.992188 267.296875 281.234375 270.207031 278.679688 C 270.945312 278.035156 271.691406 277.402344 272.453125 276.785156 C 272.796875 276.503906 273.144531 276.222656 273.492188 275.949219 C 273.632812 275.839844 273.773438 275.730469 273.914062 275.621094 C 272.417969 276.8125 273.496094 275.945312 273.835938 275.691406 C 275.402344 274.515625 277.007812 273.402344 278.65625 272.347656 C 282.320312 270 286.175781 267.96875 290.179688 266.269531 L 288.835938 266.835938 C 294.648438 264.394531 320.394531 258.628906 325.074219 259.257812 L 323.582031 259.058594 C 330.464844 260.019531 337.191406 261.878906 343.589844 264.589844 L 342.25 264.023438 C 345.492188 265.402344 348.644531 266.988281 351.6875 268.769531 C 353.203125 269.660156 354.695312 270.597656 356.152344 271.585938 C 356.84375 272.054688 357.527344 272.535156 358.203125 273.023438 C 358.542969 273.269531 358.878906 273.515625 359.210938 273.765625 C 359.398438 273.902344 359.582031 274.042969 359.769531 274.183594 C 360.546875 274.765625 358.695312 273.335938 359.511719 273.984375 C 362.242188 276.128906 364.835938 278.445312 367.277344 280.917969 C 368.472656 282.140625 369.632812 283.402344 370.746094 284.699219 C 371.320312 285.367188 371.882812 286.042969 372.429688 286.730469 C 372.703125 287.070312 373.632812 288.304688 372.492188 286.792969 C 372.773438 287.164062 373.054688 287.53125 373.328125 287.902344 C 375.695312 291.109375 377.796875 294.5 379.613281 298.050781 C 380.953125 300.671875 384.84375 301.648438 387.296875 300.066406 C 389.914062 298.453125 390.800781 295.066406 389.3125 292.375 Z M 389.3125 292.375 "/>
<path style=" stroke:none;fill-rule:nonzero;fill:rgb(24.705882%,23.921569%,33.72549%);fill-opacity:1;" d="M 323.871094 384.117188 C 322.683594 384.171875 321.585938 383.476562 321.128906 382.378906 C 320.667969 381.28125 320.945312 380.015625 321.820312 379.207031 C 321.890625 378.921875 321.941406 378.71875 322.011719 378.433594 C 321.988281 378.375 321.960938 378.3125 321.933594 378.25 C 319.328125 372.03125 302.703125 389.367188 301.984375 395.214844 C 301.664062 397.796875 301.800781 400.417969 302.378906 402.953125 C 296.992188 391.195312 294.195312 378.410156 294.175781 365.472656 C 294.175781 362.226562 294.355469 358.984375 294.714844 355.757812 C 295.015625 353.113281 295.425781 350.488281 295.957031 347.878906 C 298.84375 333.734375 305.042969 320.472656 314.042969 309.191406 C 319.191406 309.476562 323.699219 308.691406 324.136719 298.707031 C 324.214844 296.929688 325.53125 295.390625 325.820312 293.644531 C 325.328125 293.707031 324.828125 293.746094 324.335938 293.78125 C 324.183594 293.789062 324.023438 293.796875 323.871094 293.804688 L 323.8125 293.804688 C 322.710938 293.855469 321.679688 293.253906 321.183594 292.265625 C 320.6875 291.277344 320.8125 290.089844 321.507812 289.234375 C 321.722656 288.972656 321.933594 288.710938 322.144531 288.449219 C 322.46875 288.046875 322.800781 287.652344 323.121094 287.25 C 323.160156 287.210938 323.195312 287.167969 323.226562 287.128906 C 323.597656 286.667969 323.96875 286.214844 324.335938 285.757812 C 323.660156 284.707031 322.75 283.824219 321.679688 283.183594 C 317.964844 281.007812 312.84375 282.515625 310.160156 285.878906 C 307.46875 289.238281 306.960938 293.957031 307.894531 298.160156 C 308.816406 301.734375 310.335938 305.125 312.390625 308.191406 C 312.1875 308.449219 311.980469 308.699219 311.777344 308.957031 C 308.097656 313.695312 304.886719 318.78125 302.199219 324.148438 C 302.960938 318.199219 293.652344 296.707031 290.054688 292.15625 C 285.730469 286.6875 276.867188 289.074219 276.105469 296.003906 C 276.097656 296.074219 276.089844 296.140625 276.082031 296.207031 C 276.617188 296.507812 277.140625 296.828125 277.652344 297.167969 C 278.96875 298.046875 279.609375 299.648438 279.269531 301.195312 C 278.925781 302.742188 277.667969 303.921875 276.105469 304.160156 L 276.027344 304.175781 C 268.871094 314.402344 291.808594 341.019531 297.550781 335.042969 C 294.847656 342.707031 293.152344 350.695312 292.507812 358.796875 C 292.144531 363.578125 292.164062 368.382812 292.574219 373.160156 L 292.550781 372.988281 C 291.273438 362.585938 269.386719 347.113281 262.996094 348.402344 C 259.3125 349.144531 255.6875 348.976562 256.246094 352.691406 C 256.253906 352.753906 256.265625 352.8125 256.273438 352.871094 C 257.265625 353.273438 258.230469 353.742188 259.164062 354.265625 C 259.699219 354.566406 260.222656 354.886719 260.734375 355.226562 C 262.050781 356.109375 262.691406 357.707031 262.351562 359.253906 C 262.007812 360.800781 260.75 361.980469 259.1875 362.222656 L 259.109375 362.234375 C 259.050781 362.242188 259.003906 362.25 258.949219 362.257812 C 255.691406 373.476562 279.847656 391.578125 294.53125 385.820312 L 294.539062 385.820312 C 295.992188 392.148438 298.101562 398.3125 300.832031 404.203125 L 323.304688 404.203125 C 323.386719 403.953125 323.460938 403.695312 323.53125 403.445312 C 321.453125 403.578125 319.363281 403.453125 317.3125 403.074219 C 318.980469 401.027344 320.648438 398.964844 322.316406 396.914062 C 322.351562 396.875 322.386719 396.835938 322.421875 396.792969 C 323.265625 395.746094 324.121094 394.707031 324.964844 393.65625 C 325.011719 390.441406 324.644531 387.238281 323.871094 384.117188 Z M 298.132812 333.4375 L 298.144531 333.421875 L 298.132812 333.453125 Z M 293.152344 378.359375 L 292.960938 377.925781 C 292.96875 377.609375 292.96875 377.296875 292.960938 376.972656 C 292.960938 376.882812 292.945312 376.796875 292.945312 376.707031 C 293.015625 377.261719 293.082031 377.820312 293.160156 378.375 Z M 293.152344 378.359375 "/>
<path style=" stroke:none;fill-rule:nonzero;fill:rgb(24.705882%,23.921569%,33.72549%);fill-opacity:1;" d="M 79.5625 329.058594 C 79.5625 333.613281 75.875 337.304688 71.324219 337.304688 C 66.777344 337.304688 63.089844 333.613281 63.089844 329.058594 C 63.089844 324.503906 66.777344 320.8125 71.324219 320.8125 C 75.875 320.8125 79.5625 324.503906 79.5625 329.058594 Z M 79.5625 329.058594 "/>
<path style=" stroke:none;fill-rule:nonzero;fill:rgb(24.705882%,23.921569%,33.72549%);fill-opacity:1;" d="M 178.410156 419.003906 C 178.410156 423.558594 174.722656 427.25 170.171875 427.25 C 165.625 427.25 161.933594 423.558594 161.933594 419.003906 C 161.933594 414.453125 165.625 410.761719 170.171875 410.761719 C 174.722656 410.761719 178.410156 414.453125 178.410156 419.003906 Z M 178.410156 419.003906 "/>
<path style=" stroke:none;fill-rule:nonzero;fill:rgb(24.705882%,23.921569%,33.72549%);fill-opacity:1;" d="M 553.578125 419.003906 C 553.578125 423.558594 549.890625 427.25 545.339844 427.25 C 540.789062 427.25 537.101562 423.558594 537.101562 419.003906 C 537.101562 414.453125 540.789062 410.761719 545.339844 410.761719 C 549.890625 410.761719 553.578125 414.453125 553.578125 419.003906 Z M 553.578125 419.003906 "/>
<path style=" stroke:none;fill-rule:nonzero;fill:rgb(24.705882%,23.921569%,33.72549%);fill-opacity:1;" d="M 573.796875 314.066406 C 573.796875 318.621094 570.109375 322.3125 565.558594 322.3125 C 561.007812 322.3125 557.320312 318.621094 557.320312 314.066406 C 557.320312 309.511719 561.007812 305.820312 565.558594 305.820312 C 570.109375 305.820312 573.796875 309.511719 573.796875 314.066406 Z M 573.796875 314.066406 "/>
<path style=" stroke:none;fill-rule:nonzero;fill:rgb(24.705882%,23.921569%,33.72549%);fill-opacity:1;" d="M 549.832031 237.609375 C 549.832031 242.164062 546.144531 245.855469 541.59375 245.855469 C 537.046875 245.855469 533.359375 242.164062 533.359375 237.609375 C 533.359375 233.058594 537.046875 229.367188 541.59375 229.367188 C 546.144531 229.367188 549.832031 233.058594 549.832031 237.609375 Z M 549.832031 237.609375 "/>
<path style=" stroke:none;fill-rule:nonzero;fill:rgb(24.705882%,23.921569%,33.72549%);fill-opacity:1;" d="M 197.878906 314.066406 C 197.867188 318.441406 194.433594 322.039062 190.066406 322.246094 C 185.703125 322.453125 181.941406 319.195312 181.519531 314.839844 C 181.097656 310.488281 184.160156 306.566406 188.484375 305.929688 C 192.804688 305.289062 196.871094 308.15625 197.722656 312.449219 C 197.828125 312.980469 197.878906 313.523438 197.878906 314.066406 Z M 197.878906 314.066406 "/>
<path style=" stroke:none;fill-rule:nonzero;fill:rgb(24.705882%,23.921569%,33.72549%);fill-opacity:1;" d="M 370.859375 261.597656 C 370.859375 266.152344 367.171875 269.84375 362.625 269.84375 C 358.074219 269.84375 354.386719 266.152344 354.386719 261.597656 C 354.386719 257.042969 358.074219 253.351562 362.625 253.351562 C 367.171875 253.351562 370.859375 257.042969 370.859375 261.597656 Z M 370.859375 261.597656 "/>
<path style=" stroke:none;fill-rule:nonzero;fill:rgb(24.705882%,23.921569%,33.72549%);fill-opacity:1;" d="M 281 261.597656 C 280.988281 265.972656 277.554688 269.570312 273.1875 269.777344 C 268.824219 269.984375 265.0625 266.726562 264.640625 262.371094 C 264.21875 258.019531 267.28125 254.097656 271.605469 253.457031 C 275.925781 252.820312 279.992188 255.6875 280.84375 259.976562 C 280.949219 260.511719 281 261.054688 281 261.597656 Z M 281 261.597656 "/>
<path style=" stroke:none;fill-rule:nonzero;fill:rgb(24.705882%,23.921569%,33.72549%);fill-opacity:1;" d="M 174.664062 237.609375 C 174.65625 241.984375 171.21875 245.582031 166.855469 245.789062 C 162.488281 245.996094 158.730469 242.738281 158.304688 238.386719 C 157.882812 234.03125 160.945312 230.113281 165.269531 229.472656 C 169.59375 228.835938 173.65625 231.703125 174.507812 235.992188 C 174.613281 236.523438 174.667969 237.066406 174.664062 237.609375 Z M 174.664062 237.609375 "/>
<path style=" stroke:none;fill-rule:nonzero;fill:rgb(24.705882%,23.921569%,33.72549%);fill-opacity:1;" d="M 456.976562 332.054688 C 456.976562 336.609375 453.289062 340.300781 448.738281 340.300781 C 444.191406 340.300781 440.503906 336.609375 440.503906 332.054688 C 440.503906 327.503906 444.191406 323.8125 448.738281 323.8125 C 453.289062 323.8125 456.976562 327.503906 456.976562 332.054688 Z M 456.976562 332.054688 "/>
<path style=" stroke:none;fill-rule:nonzero;fill:rgb(24.705882%,23.921569%,33.72549%);fill-opacity:1;" d="M 331.171875 253.351562 C 331.171875 259.976562 325.808594 265.34375 319.191406 265.34375 C 312.574219 265.34375 307.210938 259.976562 307.210938 253.351562 C 307.210938 246.726562 312.574219 241.359375 319.191406 241.359375 C 325.808594 241.359375 331.171875 246.726562 331.171875 253.351562 Z M 331.171875 253.351562 "/>
<path style=" stroke:none;fill-rule:nonzero;fill:rgb(79.215686%,79.215686%,79.215686%);fill-opacity:1;" d="M 643.207031 427.878906 L 0.890625 428.109375 C 0.398438 428.109375 0 427.710938 0 427.21875 C 0 426.726562 0.398438 426.324219 0.890625 426.324219 L 643.207031 426.09375 C 643.699219 426.097656 644.097656 426.496094 644.097656 426.988281 C 644.097656 427.480469 643.699219 427.878906 643.207031 427.878906 Z M 643.207031 427.878906 "/>
</g>
</svg>
